<?xml version="1.0" standalone="no"?>
<!DOCTYPE svg PUBLIC "-//W3C//DTD SVG 20010904//EN"
 "http://www.w3.org/TR/2001/REC-SVG-20010904/DTD/svg10.dtd">
<svg version="1.0" xmlns="http://www.w3.org/2000/svg"
 width="512.000000pt" height="512.000000pt" viewBox="0 0 512.000000 512.000000"
 preserveAspectRatio="xMidYMid meet">

<g transform="translate(0.000000,512.000000) scale(0.100000,-0.100000)"
fill="#000000" stroke="none">
<path d="M2505 5033 c-513 -482 -2484 -2367 -2480 -2373 3 -4 70 -63 150 -130
l145 -122 37 33 c21 18 525 498 1121 1066 l1082 1033 1083 -1033 c595 -568
1099 -1048 1120 -1066 l37 -33 145 122 c80 67 147 126 150 130 4 7 -182 188
-844 819 -135 129 -343 327 -462 440 -579 553 -1223 1161 -1230 1161 -2 0 -26
-22 -54 -47z"/>
<path d="M2444 3695 c-134 -36 -249 -146 -294 -279 -84 -255 77 -522 343 -567
257 -43 497 160 498 423 1 291 -267 498 -547 423z"/>
<path d="M1021 2324 c-21 -27 -21 -29 -21 -1160 l0 -1134 80 0 80 0 0 1080 0
1080 565 0 565 0 0 -1080 0 -1080 80 0 80 0 -2 1141 -3 1141 -24 19 c-22 18
-49 19 -701 19 l-679 0 -20 -26z"/>
<path d="M2699 2331 l-24 -19 -3 -675 -2 -675 24 -29 24 -28 744 -3 c494 -2
755 0 779 7 23 7 40 20 47 36 9 19 12 206 12 689 0 656 0 664 -21 690 l-20 26
-769 0 c-741 0 -769 -1 -791 -19z m1441 -256 l0 -115 -655 0 -655 0 0 115 0
115 655 0 655 0 0 -115z m8 -642 l2 -373 -660 0 -660 0 0 375 0 375 658 -2
657 -3 3 -372z"/>
<path d="M1872 1217 c-32 -34 -30 -89 4 -116 24 -19 40 -21 145 -21 64 0 125
3 134 6 25 10 47 62 40 95 -11 51 -36 59 -175 59 -119 0 -128 -1 -148 -23z"/>
</g>
</svg>
